:SAMPLES-PER-SECOND 24
:FULLY-SPECIFIED
:DEGREES
337
root  -3.71754 38.6741 26.4749 -2.18616 -53.3972 3.95288
RightUpLeg  -7.42543 -11.7771 -8.33673
RightLeg  35.2359 -10.3944 -8.05041
RightFoot  -18.7602 0.542407 10.2839
RightToes  -2.08645e-008 3.77894e-005 6.81332e-007
Spine  7.04181 1.53111 4.18079
Spine1  4.08413 2.85002 -4.46228
HEad  -36.9221 30.749 -24.1451
LeftShoulder1  6.44519 -12.2831 -34.812
LeftArm  7.27017 24.1841 -32.1669
LeftForeArm  171.386 -65.3491 -158.794
LeftHand  -0.60305 -1.81489 9.89937
RightShoulder  3.71182 6.44846 31.4034
RightArm  19.9618 -21.443 30.7238
RightForeArm  151.619 75.1988 140.456
RightHand  -0.601653 9.11923 -5.18761
LeftUpLeg  -14.758 3.48189 13.8843
LeftLeg  27.45 4.25823 2.71923
LeftFoot  1.83492 2.07176 -18.0964
LeftToes  1.24767e-006 1.47042e-008 1.32732e-009
338
root  -3.36891 37.8866 27.1262 -0.979431 -52.528 1.90179
RightUpLeg  -7.62773 -11.9374 -8.10983
RightLeg  37.9378 -11.3307 -9.58901
RightFoot  -21.7587 0.822886 10.6233
RightToes  -2.08645e-008 3.77894e-005 6.81332e-007
Spine  6.79542 1.18726 5.6118
Spine1  5.76519 2.70713 -4.82871
HEad  -40.0542 29.2471 -24.8919
LeftShoulder1  7.00593 -12.8062 -36.8887
LeftArm  5.95304 22.4845 -28.4749
LeftForeArm  170.895 -66.9161 -157.191
LeftHand  -0.696784 -1.24088 12.3452
RightShoulder  3.60912 6.27306 31.0199
RightArm  18.4295 -18.8603 30.978
RightForeArm  150.169 76.0805 137.596
RightHand  -0.714793 8.76607 -6.2283
LeftUpLeg  -15.6577 1.23752 14.3495
LeftLeg  31.2796 4.34464 3.19352
LeftFoot  -5.97172 1.00923 -20.5689
LeftToes  1.24767e-006 1.47042e-008 1.32732e-009
339
root  -3.15575 37.7401 27.8788 0.148132 -52.2644 1.02737
RightUpLeg  -6.98133 -10.7187 -8.31737
RightLeg  36.8772 -13.1003 -10.5878
RightFoot  -21.7428 0.901662 11.5188
RightToes  -2.08645e-008 3.77894e-005 6.81332e-007
Spine  3.41719 1.38529 5.36934
Spine1  9.33298 2.70101 -4.25829
HEad  -41.8308 28.7079 -24.6779
LeftShoulder1  7.26132 -13.0411 -37.7923
LeftArm  3.96652 22.7532 -27.8556
LeftForeArm  172.298 -69.486 -154.373
LeftHand  -0.756218 -1.01104 13.8417
RightShoulder  3.60551 6.24534 31.0887
RightArm  16.378 -18.0445 31.0707
RightForeArm  147.639 77.2698 132.935
RightHand  -0.73806 9.00398 -6.32338
LeftUpLeg  -15.0149 -0.918819 13.0734
LeftLeg  30.583 7.6253 5.16904
LeftFoot  -9.40734 0.370021 -18.6832
LeftToes  1.24767e-006 1.47042e-008 1.32732e-009
340
root  -3.05738 38.4746 28.6615 1.01263 -52.6411 0.802307
RightUpLeg  -5.32578 -9.31168 -9.03619
RightLeg  32.3408 -14.2491 -9.7658
RightFoot  -17.2186 0.562886 13.584
RightToes  -2.08645e-008 3.77894e-005 6.81332e-007
Spine  0.44142 1.82002 3.77179
Spine1  10.671 2.52685 -2.2382
HEad  -41.3233 29.5251 -24.1449
LeftShoulder1  7.09796 -12.8885 -37.222
LeftArm  3.02153 27.6849 -29.6289
LeftForeArm  171.506 -70.574 -152.796
LeftHand  -0.749926 -1.05193 13.6435
RightShoulder  3.62826 6.26143 31.2629
RightArm  15.954 -20.8581 31.3111
RightForeArm  147.502 77.4161 132.334
RightHand  -0.61889 9.17031 -5.31225
LeftUpLeg  -12.6584 -2.2247 11.6575
LeftLeg  26.0582 10.557 5.88103
LeftFoot  -6.97789 0.709098 -17.4483
LeftToes  1.24767e-006 1.47042e-008 1.32732e-009
341
root  -3.01217 39.9001 29.3887 2.91119 -53.3891 0.0119629
RightUpLeg  -4.03822 -9.40759 -9.39742
RightLeg  25.3858 -14.5237 -7.60787
RightFoot  -6.92391 -0.532874 12.5859
RightToes  -2.08645e-008 3.77894e-005 6.81332e-007
Spine  -2.77473 2.23265 3.83808
Spine1  11.036 2.75374 -1.62823
HEad  -38.5502 31.029 -23.0771
LeftShoulder1  6.71818 -12.5144 -35.9032
LeftArm  4.40058 33.433 -30.2882
LeftForeArm  168.991 -69.4254 -154.03
LeftHand  -0.735618 -1.14185 13.2109
RightShoulder  3.63829 6.29442 31.2411
RightArm  16.705 -25.3277 32.4606
RightForeArm  149.427 76.6015 135.77
RightHand  -0.612953 8.96093 -5.33208
LeftUpLeg  -10.6136 1.73577 11.4568
LeftLeg  19.3928 7.89874 3.43366
LeftFoot  1.08559 1.94794 -17.8175
LeftToes  1.24767e-006 1.47042e-008 1.32732e-009
342
root  -2.94172 41.1812 29.9633 5.91327 -54.1234 -1.39417
RightUpLeg  -4.56526 -9.26593 -9.01618
RightLeg  20.3666 -13.6089 -5.7259
RightFoot  2.7626 -0.970587 7.98646
RightToes  -2.08645e-008 3.77894e-005 6.81332e-007
Spine  -4.54669 2.8103 5.42847
Spine1  8.88092 3.52998 -3.06294
HEad  -34.1597 32.1779 -20.4139
LeftShoulder1  6.28654 -12.1202 -34.2285
LeftArm  7.41596 37.8966 -28.3285
LeftForeArm  169.469 -67.0221 -156.916
LeftHand  -0.688446 -1.39004 11.9431
RightShoulder  3.8164 6.54202 32.1033
RightArm  18.0811 -30.1263 31.6931
RightForeArm  155.577 74.346 143.346
RightHand  -0.466386 9.14484 -4.10734
LeftUpLeg  -11.0117 9.24502 11.9096
LeftLeg  15.6386 0.892634 0.574047
LeftFoot  10.5646 3.51181 -18.3482
LeftToes  1.24767e-006 1.47042e-008 1.32732e-009
343
root  -2.70995 41.7734 30.3475 8.0202 -54.0108 -3.25037
RightUpLeg  -4.99168 -6.66155 -8.21474
RightLeg  19.7458 -10.8989 -4.52849
RightFoot  4.21342 -0.761093 5.76332
RightToes  -2.08645e-008 3.77894e-005 6.81332e-007
Spine  -3.21264 2.89449 6.87157
Spine1  5.78127 3.72281 -4.14688
HEad  -32.1362 32.2268 -18.6922
LeftShoulder1  5.98033 -11.9018 -32.8217
LeftArm  9.29605 39.8913 -25.3244
LeftForeArm  171.677 -64.1142 -159.915
LeftHand  -0.590349 -1.58726 9.9928
RightShoulder  3.96958 6.76711 32.765
RightArm  20.0632 -32.1342 29.6679
RightForeArm  161.215 71.3393 150.172
RightHand  -0.380961 8.96051 -3.46601
LeftUpLeg  -12.8407 11.1886 12.8432
LeftLeg  16.638 -0.948175 0.0103667
LeftFoot  15.084 4.04638 -17.5229
LeftToes  1.24767e-006 1.47042e-008 1.32732e-009
344
root  -2.36952 41.7458 30.5811 7.96729 -52.8443 -4.57239
RightUpLeg  -3.68023 -2.87313 -7.55521
RightLeg  20.1736 -7.1719 -3.13842
RightFoot  0.955895 -0.753076 7.05739
RightToes  -2.08645e-008 3.77894e-005 6.81332e-007
Spine  -0.41897 2.32987 6.61466
Spine1  4.77993 3.0732 -3.49476
HEad  -33.6223 31.0447 -18.9829
LeftShoulder1  5.71037 -11.6683 -31.6387
LeftArm  9.05242 38.4838 -23.7678
LeftForeArm  172.268 -62.1171 -161.563
LeftHand  -0.535384 -1.41975 9.29292
RightShoulder  3.82043 6.64009 31.768
RightArm  21.2216 -30.448 29.1913
RightForeArm  163.564 69.3629 153.404
RightHand  -0.331917 8.91042 -3.08069
LeftUpLeg  -14.1628 6.44516 14.075
LeftLeg  17.8839 3.45409 1.5632
LeftFoot  15.4517 3.04328 -13.121
LeftToes  1.24767e-006 1.47042e-008 1.32732e-009
345
root  -2.09764 41.1314 30.7833 7.30621 -51.8417 -4.57925
RightUpLeg  -2.70057 1.04509 -7.53765
RightLeg  20.0034 -5.41958 -2.3977
RightFoot  -2.03137 -0.799379 9.58329
RightToes  -2.08645e-008 3.77894e-005 6.81332e-007
Spine  1.0017 2.2143 4.32784
Spine1  4.95185 2.61841 -1.6682
HEad  -34.6151 29.1115 -18.3896
LeftShoulder1  5.29193 -11.2551 -29.8323
LeftArm  7.87029 34.9595 -24.1378
LeftForeArm  171.17 -62.1887 -161.399
LeftHand  -0.509609 -1.08004 9.28827
RightShoulder  3.56702 6.37226 30.2079
RightArm  20.6004 -27.887 29.3285
RightForeArm  163.904 68.7391 154.252
RightHand  -0.217773 8.86931 -2.15736
LeftUpLeg  -15.2934 -0.743808 15.1673
LeftLeg  17.7294 6.71063 2.72644
LeftFoot  13.3796 2.36565 -11.0328
LeftToes  1.24767e-006 1.47042e-008 1.32732e-009
346
root  -1.83034 39.863 31.0349 7.4071 -51.94 -4.31372
RightUpLeg  -3.25912 3.68126 -8.32196
RightLeg  21.6564 -5.19641 -2.48561
RightFoot  -8.23072 -0.384608 12.0547
RightToes  -2.08645e-008 3.77894e-005 6.81332e-007
Spine  2.416 2.48104 2.89532
Spine1  3.22728 2.8067 -1.25049
HEad  -33.7899 27.9146 -16.6673
LeftShoulder1  5.05917 -10.9586 -28.9456
LeftArm  6.52482 30.3282 -22.7981
LeftForeArm  168.379 -63.553 -160.047
LeftHand  -0.517642 -0.952851 9.61133
RightShoulder  3.52959 6.32312 30.0058
RightArm  19.4172 -24.8912 28.5542
RightForeArm  161.741 69.781 152.584
RightHand  -0.508798 8.2515 -4.69613
LeftUpLeg  -17.4606 -6.0517 16.451
LeftLeg  21.3547 5.2115 2.57177
LeftFoot  4.48633 2.26891 -16.4247
LeftToes  1.24767e-006 1.47042e-008 1.32732e-009
347
root  -1.38238 38.3694 31.3079 7.70166 -52.4027 -4.9313
RightUpLeg  -4.30529 4.22641 -9.12778
RightLeg  25.5516 -4.62957 -2.63507
RightFoot  -17.1772 0.541775 13.0082
RightToes  -2.08645e-008 3.77894e-005 6.81332e-007
Spine  3.59409 2.45296 4.10252
Spine1  3.90309 3.17781 -2.89019
HEad  -35.1884 27.4671 -16.9253
LeftShoulder1  5.45026 -11.196 -31.0675
LeftArm  3.42334 22.3141 -19.1558
LeftForeArm  164.993 -67.0495 -156.311
LeftHand  -0.616467 -0.668333 11.9281
RightShoulder  3.57057 6.326 30.4198
RightArm  17.0085 -19.3215 29.256
RightForeArm  154.234 73.6368 144.627
RightHand  -0.615268 7.86222 -5.74567
LeftUpLeg  -20.4251 -7.56693 17.0777
LeftLeg  29.4466 3.41818 2.46976
LeftFoot  -7.18522 0.804054 -20.0081
LeftToes  1.24767e-006 1.47042e-008 1.32732e-009
